{"asset":{"version":"2.0","generator":"babylon.js glTF exporter for maya 2018 v1.3.0"},"scene":0,"scenes":[{"nodes":[0],"extensions":{}}],"nodes":[{"mesh":0,"translation":[0.0,-17.9556,0.0],"rotation":[0.0,0.0,0.0,1.0],"scale":[0.122921258,0.122921258,0.122921258],"name":"Glider_GEO"}],"meshes":[{"primitives":[{"attributes":{"POSITION":1,"NORMAL":2,"TANGENT":3,"TEXCOORD_0":4},"indices":0,"mode":4,"material":0}],"name":"Glider_GEO"}],"accessors":[{"bufferView":0,"componentType":5123,"count":18960,"type":"SCALAR","name":"accessorIndices"},{"bufferView":1,"componentType":5126,"count":7644,"max":[779.0876,235.123322,283.016663],"min":[-779.0876,172.977875,-283.016663],"type":"VEC3","name":"accessorPositions"},{"bufferView":1,"byteOffset":91728,"componentType":5126,"count":7644,"type":"VEC3","name":"accessorNormals"},{"bufferView":2,"componentType":5126,"count":7644,"type":"VEC4","name":"accessorTangents"},{"bufferView":3,"componentType":5126,"count":7644,"type":"VEC2","name":"accessorUVs"}],"bufferViews":[{"buffer":0,"byteLength":37920,"name":"bufferViewScalar"},{"buffer":0,"byteOffset":37920,"byteLength":183456,"byteStride":12,"name":"bufferViewFloatVec3"},{"buffer":0,"byteOffset":221376,"byteLength":122304,"byteStride":16,"name":"bufferViewFloatVec4"},{"buffer":0,"byteOffset":343680,"byteLength":61152,"byteStride":8,"name":"bufferViewFloatVec2"}],"buffers":[{"uri":"Glider_GLTF.bin","byteLength":404832}],"materials":[{"pbrMetallicRoughness":{"baseColorFactor":[1.0,1.0,1.0,1.0],"baseColorTexture":{"index":1,"texCoord":0},"metallicFactor":1.0,"roughnessFactor":0.33,"metallicRoughnessTexture":{"index":2,"texCoord":0}},"normalTexture":{"index":0,"texCoord":0},"emissiveFactor":[0.0,0.0,0.0],"alphaMode":"OPAQUE","name":"StingrayPBS1"}],"textures":[{"sampler":0,"source":0,"name":"DW_DaVinci_Glider_NM.jpg"},{"sampler":1,"source":1,"name":"DW_DaVinci_Glider_DF.jpg"},{"sampler":2,"source":2,"name":"84file6.jpg"}],"images":[{"uri":"DW_DaVinci_Glider_NM.jpg"},{"uri":"DW_DaVinci_Glider_DF.jpg"},{"uri":"84file6.jpg"}],"samplers":[{"magFilter":9729,"minFilter":9987,"wrapS":10497,"wrapT":10497},{"magFilter":9729,"minFilter":9987,"wrapS":10497,"wrapT":10497},{"magFilter":9729,"minFilter":9987,"wrapS":10497,"wrapT":10497}]}